HIERARCHY
ROOT joint_Root
{
	OFFSET 0.0 0.0 0.0
	CHANNELS 6 Xposition Yposition Zposition Zrotation Xrotation Yrotation 
	JOINT Hips
	{
		OFFSET -0.726466 93.3139 -2.00062
		CHANNELS 6 Xposition Yposition Zposition Zrotation Xrotation Yrotation 
		JOINT Spine
		{
			OFFSET 15.7357 0.0 0.0
			CHANNELS 6 Xposition Yposition Zposition Zrotation Xrotation Yrotation 
			JOINT Chest
			{
				OFFSET 8.98455 -0.406207 0.0
				CHANNELS 6 Xposition Yposition Zposition Zrotation Xrotation Yrotation 
				JOINT Neck
				{
					OFFSET 16.3773 0.0 0.0
					CHANNELS 6 Xposition Yposition Zposition Zrotation Xrotation Yrotation 
					JOINT Head
					{
						OFFSET 6.45672 0.0 0.0
						CHANNELS 6 Xposition Yposition Zposition Zrotation Xrotation Yrotation 
						End Site
						{
							OFFSET 0.0 0.0 0.0
						}
					}
				}
				JOINT Shoulder_L
				{
					OFFSET 12.9942 -0.242716 4.98039
					CHANNELS 6 Xposition Yposition Zposition Zrotation Xrotation Yrotation 
					JOINT UpperArm_L
					{
						OFFSET 5.34809 0.0 0.0
						CHANNELS 6 Xposition Yposition Zposition Zrotation Xrotation Yrotation 
						JOINT LowerArm_L
						{
							OFFSET 24.3286 1.87007e-05 0.0
							CHANNELS 6 Xposition Yposition Zposition Zrotation Xrotation Yrotation 
							JOINT Hand_L
							{
								OFFSET 22.2916 0.0 0.0
								CHANNELS 6 Xposition Yposition Zposition Zrotation Xrotation Yrotation 
								End Site
								{
									OFFSET 0.0 0.0 0.0
								}
							}
						}
					}
				}
				JOINT Shoulder_R
				{
					OFFSET 12.9945 -0.242716 -4.98039
					CHANNELS 6 Xposition Yposition Zposition Zrotation Xrotation Yrotation 
					JOINT UpperArm_R
					{
						OFFSET -5.34813 0.0 0.0
						CHANNELS 6 Xposition Yposition Zposition Zrotation Xrotation Yrotation 
						JOINT LowerArm_R
						{
							OFFSET -24.3289 0.000322201 0.0
							CHANNELS 6 Xposition Yposition Zposition Zrotation Xrotation Yrotation 
							JOINT Hand_R
							{
								OFFSET -22.2915 -0.000108084 0.0
								CHANNELS 6 Xposition Yposition Zposition Zrotation Xrotation Yrotation 
								End Site
								{
									OFFSET 0.0 0.0 0.0
								}
							}
						}
					}
				}
			}
		}
		JOINT UpperLeg_L
		{
			OFFSET -2.19248 -6.46944 0.0
			CHANNELS 6 Xposition Yposition Zposition Zrotation Xrotation Yrotation 
			JOINT LowerLeg_L
			{
				OFFSET 39.0811 0.0 -1.23785e-05
				CHANNELS 6 Xposition Yposition Zposition Zrotation Xrotation Yrotation 
				JOINT Foot_L
				{
					OFFSET 40.9854 0.0 -1.26872e-05
					CHANNELS 6 Xposition Yposition Zposition Zrotation Xrotation Yrotation 
					JOINT Toes_L
					{
						OFFSET 11.7543 0.0 0.0
						CHANNELS 6 Xposition Yposition Zposition Zrotation Xrotation Yrotation 
						End Site
						{
							OFFSET 0.0 0.0 0.0
						}
					}
				}
			}
		}
		JOINT UpperLeg_R
		{
			OFFSET -2.19251 6.46944 0.0
			CHANNELS 6 Xposition Yposition Zposition Zrotation Xrotation Yrotation 
			JOINT LowerLeg_R
			{
				OFFSET -39.0811 -0.00228153 -0.0401928
				CHANNELS 6 Xposition Yposition Zposition Zrotation Xrotation Yrotation 
				JOINT Foot_R
				{
					OFFSET -40.9854 0.0 0.0
					CHANNELS 6 Xposition Yposition Zposition Zrotation Xrotation Yrotation 
					JOINT Toes_R
					{
						OFFSET -11.7543 0.0 0.0
						CHANNELS 6 Xposition Yposition Zposition Zrotation Xrotation Yrotation 
						End Site
						{
							OFFSET 0.0 0.0 0.0
						}
					}
				}
			}
		}
	}
}
MOTION
Frames:	7
Frame Time:	0.0333333
0.000000 0.000000 0.000000 0.000000 0.000000 -0.000000 -206.523000 90.670800 189.667000 59.001200 84.405000 34.211600 15.735700 0.000005 -0.000001 79.918100 82.315900 -79.099700 8.984550 -0.406207 -0.000000 7.390720 -2.682920 1.808550 16.377300 -0.000001 -0.000001 0.479402 -0.161277 -0.423157 6.456720 -0.000001 -0.000000 -1.579370 1.233830 -0.667944 12.994200 -0.242716 4.980390 -89.626900 -1.216600 -72.949400 5.348090 -0.000007 -0.000001 -59.870400 33.913800 -31.508200 24.328600 0.000019 0.000005 -1.540920 -1.927930 -38.641200 22.291600 -0.000001 0.000005 11.029600 5.542210 -8.343410 12.994500 -0.242716 -4.980390 88.895200 3.642550 -73.113900 -5.348130 -0.000001 -0.000004 -73.764900 18.559800 -3.268650 -24.328900 0.000322 -0.000009 0.924125 14.447100 -3.703270 -22.291500 -0.000108 -0.000004 9.398040 5.280680 0.607559 -2.192480 -6.469440 -0.000000 -177.539000 0.422078 -2.012890 39.081100 -0.000007 -0.000012 -0.236473 0.424749 29.106700 40.985400 -0.000006 -0.000013 0.874911 -1.556490 -74.147800 11.754300 -0.000000 0.000003 -0.000010 -0.000138 -16.583000 -2.192510 6.469440 -0.000001 179.655000 10.829700 158.349000 -39.081100 -0.002282 -0.040193 0.081905 -0.057228 53.967500 -40.985400 0.000008 0.000006 1.802330 -9.541880 -54.523800 -11.754300 -0.000006 -0.000006 -0.021421 -0.175037 -23.727200
0.000000 0.000000 0.000000 0.000000 0.000000 -0.000000 -204.237000 90.668100 190.042000 51.191100 84.585900 41.749100 15.735700 0.000005 -0.000001 76.909700 82.258400 -75.789400 8.984550 -0.406207 -0.000000 7.360480 -3.497700 2.463820 16.377300 -0.000001 -0.000001 0.478869 -0.224564 -0.345255 6.456720 -0.000001 -0.000000 -1.692650 1.730310 -0.342600 12.994200 -0.242716 4.980390 -89.514400 -1.623610 -73.343900 5.348090 -0.000007 -0.000001 -56.892400 32.476500 -36.739600 24.328600 0.000019 0.000005 -1.821800 -2.074280 -41.307600 22.291600 -0.000001 0.000005 11.369800 5.547630 -8.593380 12.994500 -0.242716 -4.980390 88.877500 3.565320 -72.511200 -5.348130 -0.000001 -0.000004 -72.305000 19.451600 -1.311310 -24.328900 0.000322 -0.000009 1.191640 14.693000 -4.692320 -22.291500 -0.000108 -0.000004 9.611950 5.287270 0.426776 -2.192480 -6.469440 -0.000000 -176.762000 0.321002 0.347839 39.081100 -0.000007 -0.000012 -0.224692 0.438767 27.117300 40.985400 -0.000006 -0.000013 0.914321 -0.834577 -74.798500 11.754300 -0.000000 0.000003 -0.000029 -0.000351 -16.591300 -2.192510 6.469440 -0.000001 -178.710000 11.401300 156.976000 -39.081100 -0.002282 -0.040193 0.047451 -0.045103 44.410700 -40.985400 0.000008 0.000006 2.215110 -11.363300 -54.459600 -11.754300 -0.000006 -0.000006 -0.021351 -0.174663 -23.711800
0.000000 0.000000 0.000000 0.000000 0.000000 -0.000000 -201.906000 90.358600 190.432000 47.958600 84.616800 44.481700 15.735700 0.000005 -0.000001 74.816500 82.247900 -73.495300 8.984550 -0.406207 -0.000000 7.258880 -4.051870 2.897570 16.377300 -0.000001 -0.000001 0.342918 -0.252097 -0.216707 6.456720 -0.000001 -0.000000 -1.956710 2.196810 -0.117319 12.994200 -0.242716 4.980390 -89.436700 -1.916190 -73.614400 5.348090 -0.000007 -0.000001 -54.483500 30.573500 -41.018900 24.328600 0.000019 0.000005 -1.786350 -1.892860 -43.357300 22.291600 -0.000001 0.000005 12.057600 5.556210 -8.998180 12.994500 -0.242716 -4.980390 88.819900 3.640920 -72.027500 -5.348130 -0.000001 -0.000004 -70.929400 19.663600 0.218417 -24.328900 0.000322 -0.000009 1.491590 14.440300 -5.965480 -22.291500 -0.000108 -0.000004 10.374400 5.303580 -0.027419 -2.192480 -6.469440 -0.000000 -176.095000 -0.594618 2.115820 39.081100 -0.000007 -0.000012 -0.228404 0.466344 26.094800 40.985400 -0.000006 -0.000013 1.037740 0.343194 -76.060900 11.754300 -0.000000 0.000003 -0.000059 -0.000657 -16.603000 -2.192510 6.469440 -0.000001 -177.232000 12.251900 156.220000 -39.081100 -0.002282 -0.040193 0.025062 -0.033357 33.126700 -40.985400 0.000008 0.000006 2.448670 -10.413200 -52.401300 -11.754300 -0.000006 -0.000006 -0.021580 -0.175890 -23.762400
0.000000 0.000000 0.000000 0.000000 0.000000 -0.000000 -199.434000 89.879800 190.884000 47.266600 84.576000 44.454600 15.735700 0.000005 -0.000001 72.897700 82.335500 -71.418100 8.984550 -0.406207 -0.000000 6.961580 -4.503140 3.231260 16.377300 -0.000001 -0.000001 0.245057 -0.172706 -0.113836 6.456720 -0.000001 -0.000000 -2.218450 2.684500 0.048761 12.994200 -0.242716 4.980390 -89.361800 -2.194920 -73.783800 5.348090 -0.000007 -0.000001 -53.191500 28.424600 -43.751100 24.328600 0.000019 0.000005 -1.689880 -1.693490 -44.952300 22.291600 -0.000001 0.000005 12.590100 5.563170 -9.342550 12.994500 -0.242716 -4.980390 88.786500 3.686950 -71.768200 -5.348130 -0.000001 -0.000004 -69.944800 18.878800 1.318200 -24.328900 0.000322 -0.000009 1.696140 14.002900 -6.981360 -22.291500 -0.000108 -0.000004 11.200700 5.317870 -0.434197 -2.192480 -6.469440 -0.000000 -175.242000 -2.495460 3.648050 39.081100 -0.000007 -0.000012 -0.233700 0.493537 25.339000 40.985400 -0.000006 -0.000013 1.217880 2.186170 -77.565300 11.754300 -0.000000 0.000003 -0.000088 -0.000918 -16.612900 -2.192510 6.469440 -0.000001 -175.575000 14.066000 155.658000 -39.081100 -0.002282 -0.040193 0.012562 -0.023160 21.757400 -40.985400 0.000008 0.000006 0.653629 -3.920500 -49.299900 -11.754300 -0.000006 -0.000006 -0.021562 -0.175794 -23.758400
0.000000 0.000000 0.000000 0.000000 0.000000 -0.000000 -196.577000 89.269400 191.448000 48.324900 84.633000 42.956800 15.735700 0.000005 -0.000001 71.388200 82.423100 -69.783000 8.984550 -0.406207 -0.000000 6.683440 -4.836360 3.490910 16.377300 -0.000001 -0.000001 0.303518 -0.201897 -0.111848 6.456720 -0.000001 -0.000000 -2.326790 3.131070 0.101976 12.994200 -0.242716 4.980390 -89.372500 -2.195270 -74.043400 5.348090 -0.000007 -0.000001 -52.507800 26.641400 -45.093900 24.328600 0.000019 0.000005 -1.889620 -1.816320 -46.148100 22.291600 -0.000001 0.000005 13.199700 5.568700 -9.621450 12.994500 -0.242716 -4.980390 88.765000 3.709060 -71.568900 -5.348130 -0.000001 -0.000004 -69.251400 17.316500 1.930460 -24.328900 0.000322 -0.000009 1.719020 13.429400 -7.367470 -22.291500 -0.000108 -0.000004 11.795900 5.321470 -0.538334 -2.192480 -6.469440 -0.000000 -174.480000 -4.051270 6.219120 39.081100 -0.000007 -0.000012 -0.233320 0.529197 23.792800 40.985400 -0.000006 -0.000013 1.183750 3.719280 -79.011000 11.754300 -0.000000 0.000003 -0.000056 -0.000621 -16.601600 -2.192510 6.469440 -0.000001 -173.669000 16.245900 154.664000 -39.081100 -0.002282 -0.040193 -0.018137 0.083479 14.422300 -40.985400 0.000008 0.000006 -0.730744 4.742720 -48.105900 -11.754300 -0.000006 -0.000006 -0.021551 -0.175731 -23.755800
0.000000 0.000000 0.000000 0.000000 0.000000 -0.000000 -193.215000 88.584900 192.297000 48.862900 84.882600 42.216600 15.735700 0.000005 -0.000001 69.642500 82.510800 -67.947700 8.984550 -0.406207 -0.000000 6.376690 -5.215990 3.678530 16.377300 -0.000001 -0.000001 0.361332 -0.157109 -0.079340 6.456720 -0.000001 -0.000000 -1.930860 3.341670 0.127977 12.994200 -0.242716 4.980390 -89.419600 -2.058860 -74.252800 5.348090 -0.000007 -0.000001 -52.343400 25.476300 -45.235600 24.328600 0.000019 0.000005 -2.218820 -2.079990 -46.870500 22.291600 -0.000001 0.000005 13.623800 5.572110 -9.796940 12.994500 -0.242716 -4.980390 88.698500 3.884610 -71.461300 -5.348130 -0.000001 -0.000004 -68.784700 15.702500 2.052060 -24.328900 0.000322 -0.000009 1.613060 13.084200 -7.095230 -22.291500 -0.000108 -0.000004 12.174600 5.313850 -0.319663 -2.192480 -6.469440 -0.000000 -174.201000 -4.894110 8.879770 39.081100 -0.000007 -0.000012 0.015865 -0.037266 23.061000 40.985400 -0.000006 -0.000013 4.482720 3.631070 -80.284400 11.754300 -0.000000 0.000003 -0.861361 -1.061240 -17.108300 -2.192510 6.469440 -0.000001 -172.352000 15.878600 153.061000 -39.081100 -0.002282 -0.040193 -0.037040 0.169589 13.390900 -40.985400 0.000008 0.000006 2.165010 3.936270 -50.545600 -11.754300 -0.000006 -0.000006 -0.021785 -0.176983 -23.807500
0.000000 0.000000 0.000000 0.000000 0.000000 -0.000000 -189.478000 88.061800 193.436000 41.441000 84.515300 49.179900 15.735700 0.000005 -0.000001 68.118800 82.736600 -65.993300 8.984550 -0.406207 -0.000000 5.839400 -5.436000 4.526290 16.377300 -0.000001 -0.000001 0.561075 -0.192126 -0.118211 6.456720 -0.000001 -0.000000 -1.476920 3.492050 0.111217 12.994200 -0.242716 4.980390 -89.550900 -1.616310 -74.470500 5.348090 -0.000007 -0.000001 -52.330000 25.202800 -44.227600 24.328600 0.000019 0.000005 -2.462910 -2.304120 -46.933600 22.291600 -0.000001 0.000005 14.075400 5.579250 -10.171300 12.994500 -0.242716 -4.980390 88.523500 4.374680 -71.329900 -5.348130 -0.000001 -0.000004 -68.311800 14.804800 1.430970 -24.328900 0.000322 -0.000009 1.368130 13.153700 -5.995800 -22.291500 -0.000108 -0.000004 12.591300 5.303250 -0.019284 -2.192480 -6.469440 -0.000000 -172.489000 -4.607790 9.363790 39.081100 -0.000007 -0.000012 0.008544 -0.017911 25.500100 40.985400 -0.000006 -0.000013 3.778310 4.551310 -77.993900 11.754300 -0.000000 0.000003 -2.010790 -2.326990 -22.248900 -2.192510 6.469440 -0.000001 -171.302000 14.212900 151.030000 -39.081100 -0.002282 -0.040193 0.027715 -0.077303 17.510200 -40.985400 0.000008 0.000006 5.565330 -0.687799 -45.603300 -11.754300 -0.000006 -0.000006 -0.026054 -0.198771 -24.707500
